# xmcd
#
# Track frame offsets:
#	150
#	11826
#	25285
#	35309
#	68181
#	80834
#	92467
#	118698
#	128280
#	140580
#	152184
#	163718
#	180915
#	193328
#	204880
#	221052
#	231883
#	245304
#
# Disc length: 3450
#
# Revision: 1
# Processed by: cddbd v1.5.1PL0 Copyright (c) Steve Scherf et al.
# Submitted via: ExactAudioCopy v0.90b2
# Normalized: r0:DSETVAR1
#
DISCID=f10d7812
DTITLE=Various Artist - The Blues Box Disk 5
DYEAR=1999
DGENRE=Blues
TTITLE0=John Lee Hooker - Boogie Chillun
TTITLE1=Jimmy Witherspoon with Jay McShann and his orchestra - Ain't nobody's business if I do
TTITLE2=Memphis Slim - The comeback
TTITLE3=Joe Turner - Chains of love
TTITLE4=Sonny Terry - Airplane blues
TTITLE5=Muddy Waters with Sunnyland Slim and Ernest (Big) Crawford - Gypsy woman
TTITLE6=Brownie McGhee, Sonny Terry and Lightnin' Hopkins - Wimmin from coast to coast
TTITLE7=Lewis-Johnson Combo - So long baby goodbye
TTITLE8=Willie Nix - Baker shop boogie
TTITLE9=Hot Shot Love - Wolf Call boogie
TTITLE10=Little Milton - If you love me
TTITLE11=Son House - Death letter blues
TTITLE12=Jimmy Reed - Honest I do
TTITLE13=Li'l Son Jackson - Ticket agent blues
TTITLE14=Memphis Slim - When the sun goes down
TTITLE15=Rufus Thomas - Walking in the rain
TTITLE16=Litle Junior's Blue Flames - Fussin' and fightin' blues
TTITLE17=Roosevelt Sykes with his orginal Honeydrippers - Sunny road
EXTD=
EXTT0=
EXTT1=
EXTT2=
EXTT3=
EXTT4=
EXTT5=
EXTT6=
EXTT7=
EXTT8=
EXTT9=
EXTT10=
EXTT11=
EXTT12=
EXTT13=
EXTT14=
EXTT15=
EXTT16=
EXTT17=
PLAYORDER=
